<svg xmlns="http://www.w3.org/2000/svg" viewBox="0 0 860 1889" font-family="ui-monospace,Menlo,Consolas,monospace">
<rect width="860" height="1889" fill="#0d1117"/>
<text x="44" y="28" fill="#e6edf3" font-size="17">sg13g2_IOPadOut30mA — EM heat-map (klayout polygons, Xyce currents)</text>
<path d="M92.2,1781.0 L92.2,1752.0 L767.8,1752.0 L767.8,1781.0 Z" fill="#565b61" fill-opacity="0.55" stroke="#565b61" stroke-width="0.4"/>
<path d="M92.2,1781.0 L92.2,1752.0 L767.8,1752.0 L767.8,1781.0 Z" fill="#565b61" fill-opacity="0.55" stroke="#565b61" stroke-width="0.4"/>
<path d="M319.7,1696.6 L319.7,1654.1 L321.7,1654.1 L321.7,1696.6 Z" fill="#565b61" fill-opacity="0.55" stroke="#565b61" stroke-width="0.4"/>
<path d="M348.8,1696.6 L348.8,1654.1 L350.9,1654.1 L350.9,1696.6 Z" fill="#565b61" fill-opacity="0.55" stroke="#565b61" stroke-width="0.4"/>
<path d="M378.0,1696.6 L378.0,1654.1 L380.0,1654.1 L380.0,1696.6 Z" fill="#565b61" fill-opacity="0.55" stroke="#565b61" stroke-width="0.4"/>
<path d="M407.1,1696.6 L407.1,1654.1 L409.2,1654.1 L409.2,1696.6 Z" fill="#565b61" fill-opacity="0.55" stroke="#565b61" stroke-width="0.4"/>
<path d="M436.3,1696.6 L436.3,1654.1 L438.3,1654.1 L438.3,1696.6 Z" fill="#565b61" fill-opacity="0.55" stroke="#565b61" stroke-width="0.4"/>
<path d="M465.4,1696.6 L465.4,1654.1 L467.4,1654.1 L467.4,1696.6 Z" fill="#565b61" fill-opacity="0.55" stroke="#565b61" stroke-width="0.4"/>
<path d="M494.6,1696.6 L494.6,1654.1 L496.6,1654.1 L496.6,1696.6 Z" fill="#565b61" fill-opacity="0.55" stroke="#565b61" stroke-width="0.4"/>
<path d="M523.7,1696.6 L523.7,1654.1 L525.7,1654.1 L525.7,1696.6 Z" fill="#565b61" fill-opacity="0.55" stroke="#565b61" stroke-width="0.4"/>
<path d="M61.4,1705.7 L61.4,1644.9 L798.6,1644.9 L798.6,1705.7 Z" fill="#565b61" fill-opacity="0.55" stroke="#565b61" stroke-width="0.4"/>
<path d="M270.5,1611.5 L270.5,1512.5 L589.5,1512.5 L589.5,1611.5 Z" fill="#565b61" fill-opacity="0.55" stroke="#565b61" stroke-width="0.4"/>
<path d="M254.5,1284.8 L254.5,1153.8 L44.0,1153.8 L44.0,428.4 L816.0,428.4 L816.0,1153.8 L605.5,1153.8 L605.5,1284.8 Z" fill="#565b61" fill-opacity="0.55" stroke="#565b61" stroke-width="0.4"/>
<path d="M319.7,1723.1 L319.7,1611.5 L270.5,1611.5 L270.5,1512.5 L319.7,1512.5 L319.7,1281.5 L321.7,1281.5 L321.7,1723.1 Z" fill="#565b61" fill-opacity="0.55" stroke="#565b61" stroke-width="0.4"/>
<path d="M348.9,1723.1 L348.9,1281.5 L350.8,1281.5 L350.8,1723.1 Z" fill="#565b61" fill-opacity="0.55" stroke="#565b61" stroke-width="0.4"/>
<path d="M378.0,1723.1 L378.0,1281.5 L380.0,1281.5 L380.0,1723.1 Z" fill="#565b61" fill-opacity="0.55" stroke="#565b61" stroke-width="0.4"/>
<path d="M407.2,1723.1 L407.2,1281.5 L409.1,1281.5 L409.1,1723.1 Z" fill="#565b61" fill-opacity="0.55" stroke="#565b61" stroke-width="0.4"/>
<path d="M436.3,1723.1 L436.3,1281.5 L438.3,1281.5 L438.3,1723.1 Z" fill="#565b61" fill-opacity="0.55" stroke="#565b61" stroke-width="0.4"/>
<path d="M465.5,1723.1 L465.5,1281.5 L467.4,1281.5 L467.4,1723.1 Z" fill="#565b61" fill-opacity="0.55" stroke="#565b61" stroke-width="0.4"/>
<path d="M494.6,1723.1 L494.6,1281.5 L496.5,1281.5 L496.5,1723.1 Z" fill="#565b61" fill-opacity="0.55" stroke="#565b61" stroke-width="0.4"/>
<path d="M523.7,1723.1 L523.7,1281.5 L525.7,1281.5 L525.7,1723.1 Z" fill="#565b61" fill-opacity="0.55" stroke="#565b61" stroke-width="0.4"/>
<path d="M46.0,565.1 L46.0,487.9 L100.8,487.9 L100.8,565.1 Z" fill="#565b61" fill-opacity="0.55" stroke="#565b61" stroke-width="0.4"/>
<path d="M319.7,1722.2 L319.7,1713.5 L44.0,1713.5 L44.0,1467.4 L816.0,1467.4 L816.0,1713.5 L525.7,1713.5 L525.7,1722.2 L523.7,1722.2 L523.7,1713.5 L496.5,1713.5 L496.5,1722.2 L494.6,1722.2 L494.6,1713.5 L467.4,1713.5 L467.4,1722.2 L465.5,1722.2 L465.5,1713.5 L438.3,1713.5 L438.3,1722.2 L436.3,1722.2 L436.3,1713.5 L409.1,1713.5 L409.1,1722.2 L407.2,1722.2 L407.2,1713.5 L380.0,1713.5 L380.0,1722.2 L378.0,1722.2 L378.0,1713.5 L350.8,1713.5 L350.8,1722.2 L348.9,1722.2 L348.9,1713.5 L321.7,1713.5 L321.7,1722.2 Z" fill="#565b61" fill-opacity="0.55" stroke="#565b61" stroke-width="0.4"/>
<path d="M44.0,565.1 L44.0,487.9 L816.0,487.9 L816.0,565.1 Z" fill="#565b61" fill-opacity="0.55" stroke="#565b61" stroke-width="0.4"/>
<path d="M44.0,1713.5 L44.0,1467.4 L816.0,1467.4 L816.0,1713.5 Z" fill="#565b61" fill-opacity="0.55" stroke="#565b61" stroke-width="0.4"/>
<path d="M44.0,565.1 L44.0,487.9 L816.0,487.9 L816.0,565.1 Z" fill="#565b61" fill-opacity="0.55" stroke="#565b61" stroke-width="0.4"/>
<path d="M44.0,1713.5 L44.0,1467.4 L816.0,1467.4 L816.0,1713.5 Z" fill="#565b61" fill-opacity="0.55" stroke="#565b61" stroke-width="0.4"/>
<path d="M44.0,565.1 L44.0,487.9 L816.0,487.9 L816.0,565.1 Z" fill="#565b61" fill-opacity="0.55" stroke="#565b61" stroke-width="0.4"/>
<path d="M44.0,1713.5 L44.0,1467.4 L816.0,1467.4 L816.0,1713.5 Z" fill="#565b61" fill-opacity="0.55" stroke="#565b61" stroke-width="0.4"/>
<path d="M44.0,565.1 L44.0,487.9 L816.0,487.9 L816.0,565.1 Z" fill="#565b61" fill-opacity="0.55" stroke="#565b61" stroke-width="0.4"/>
<path d="M44.0,1699.0 L44.0,1481.8 L816.0,1481.8 L816.0,1699.0 Z" fill="#565b61" fill-opacity="0.55" stroke="#565b61" stroke-width="0.4"/>
<path d="M44.0,550.6 L44.0,502.4 L816.0,502.4 L816.0,550.6 Z" fill="#565b61" fill-opacity="0.55" stroke="#565b61" stroke-width="0.4"/>
<path d="M44.0,1723.1 L44.0,1192.3 L47.9,1192.3 L47.9,1462.5 L812.1,1462.5 L812.1,1192.3 L816.0,1192.3 L816.0,1723.1 Z" fill="#565b61" fill-opacity="0.55" stroke="#565b61" stroke-width="0.4"/>
<path d="M44.0,1448.1 L44.0,1202.0 L816.0,1202.0 L816.0,1448.1 Z" fill="#565b61" fill-opacity="0.55" stroke="#565b61" stroke-width="0.4"/>
<path d="M44.0,1448.1 L44.0,1202.0 L816.0,1202.0 L816.0,1448.1 Z" fill="#565b61" fill-opacity="0.55" stroke="#565b61" stroke-width="0.4"/>
<path d="M44.0,1448.1 L44.0,1202.0 L816.0,1202.0 L816.0,1448.1 Z" fill="#565b61" fill-opacity="0.55" stroke="#565b61" stroke-width="0.4"/>
<path d="M44.0,1448.1 L44.0,1202.0 L816.0,1202.0 L816.0,1448.1 Z" fill="#565b61" fill-opacity="0.55" stroke="#565b61" stroke-width="0.4"/>
<path d="M44.0,1433.6 L44.0,1216.5 L816.0,1216.5 L816.0,1433.6 Z" fill="#565b61" fill-opacity="0.55" stroke="#565b61" stroke-width="0.4"/>
<path d="M270.5,1268.8 L270.5,1169.8 L589.5,1169.8 L589.5,1268.8 Z" fill="#565b61" fill-opacity="0.55" stroke="#565b61" stroke-width="0.4"/>
<path d="M319.7,1126.2 L319.7,1064.0 L321.7,1064.0 L321.7,1126.2 Z" fill="#565b61" fill-opacity="0.55" stroke="#565b61" stroke-width="0.4"/>
<path d="M348.8,1126.2 L348.8,1064.0 L350.9,1064.0 L350.9,1126.2 Z" fill="#565b61" fill-opacity="0.55" stroke="#565b61" stroke-width="0.4"/>
<path d="M378.0,1126.2 L378.0,1064.0 L380.0,1064.0 L380.0,1126.2 Z" fill="#565b61" fill-opacity="0.55" stroke="#565b61" stroke-width="0.4"/>
<path d="M407.1,1126.2 L407.1,1064.0 L409.2,1064.0 L409.2,1126.2 Z" fill="#565b61" fill-opacity="0.55" stroke="#565b61" stroke-width="0.4"/>
<path d="M436.3,1126.2 L436.3,1064.0 L438.3,1064.0 L438.3,1126.2 Z" fill="#565b61" fill-opacity="0.55" stroke="#565b61" stroke-width="0.4"/>
<path d="M465.4,1126.2 L465.4,1064.0 L467.4,1064.0 L467.4,1126.2 Z" fill="#565b61" fill-opacity="0.55" stroke="#565b61" stroke-width="0.4"/>
<path d="M494.6,1126.2 L494.6,1064.0 L496.6,1064.0 L496.6,1126.2 Z" fill="#565b61" fill-opacity="0.55" stroke="#565b61" stroke-width="0.4"/>
<path d="M523.7,1126.2 L523.7,1064.0 L525.7,1064.0 L525.7,1126.2 Z" fill="#565b61" fill-opacity="0.55" stroke="#565b61" stroke-width="0.4"/>
<path d="M319.7,1057.6 L319.7,995.5 L321.7,995.5 L321.7,1057.6 Z" fill="#565b61" fill-opacity="0.55" stroke="#565b61" stroke-width="0.4"/>
<path d="M348.8,1057.6 L348.8,995.5 L350.9,995.5 L350.9,1057.6 Z" fill="#565b61" fill-opacity="0.55" stroke="#565b61" stroke-width="0.4"/>
<path d="M378.0,1057.6 L378.0,995.5 L380.0,995.5 L380.0,1057.6 Z" fill="#565b61" fill-opacity="0.55" stroke="#565b61" stroke-width="0.4"/>
<path d="M407.1,1057.6 L407.1,995.5 L409.2,995.5 L409.2,1057.6 Z" fill="#565b61" fill-opacity="0.55" stroke="#565b61" stroke-width="0.4"/>
<path d="M436.3,1057.6 L436.3,995.5 L438.3,995.5 L438.3,1057.6 Z" fill="#565b61" fill-opacity="0.55" stroke="#565b61" stroke-width="0.4"/>
<path d="M465.4,1057.6 L465.4,995.5 L467.4,995.5 L467.4,1057.6 Z" fill="#565b61" fill-opacity="0.55" stroke="#565b61" stroke-width="0.4"/>
<path d="M494.6,1057.6 L494.6,995.5 L496.6,995.5 L496.6,1057.6 Z" fill="#565b61" fill-opacity="0.55" stroke="#565b61" stroke-width="0.4"/>
<path d="M523.7,1057.6 L523.7,995.5 L525.7,995.5 L525.7,1057.6 Z" fill="#565b61" fill-opacity="0.55" stroke="#565b61" stroke-width="0.4"/>
<path d="M61.4,1136.4 L61.4,985.3 L798.6,985.3 L798.6,1136.4 Z" fill="#565b61" fill-opacity="0.55" stroke="#565b61" stroke-width="0.4"/>
<path d="M270.5,1268.8 L270.5,1169.8 L319.7,1169.8 L319.7,967.9 L321.7,967.9 L321.7,1268.8 Z" fill="#565b61" fill-opacity="0.55" stroke="#565b61" stroke-width="0.4"/>
<path d="M348.9,1268.8 L348.9,967.9 L350.8,967.9 L350.8,1268.8 Z" fill="#565b61" fill-opacity="0.55" stroke="#565b61" stroke-width="0.4"/>
<path d="M378.0,1268.8 L378.0,967.9 L380.0,967.9 L380.0,1268.8 Z" fill="#565b61" fill-opacity="0.55" stroke="#565b61" stroke-width="0.4"/>
<path d="M407.2,1268.8 L407.2,967.9 L409.1,967.9 L409.1,1268.8 Z" fill="#565b61" fill-opacity="0.55" stroke="#565b61" stroke-width="0.4"/>
<path d="M436.3,1268.8 L436.3,967.9 L438.3,967.9 L438.3,1268.8 Z" fill="#565b61" fill-opacity="0.55" stroke="#565b61" stroke-width="0.4"/>
<path d="M465.5,1268.8 L465.5,967.9 L467.4,967.9 L467.4,1268.8 Z" fill="#565b61" fill-opacity="0.55" stroke="#565b61" stroke-width="0.4"/>
<path d="M494.6,1268.8 L494.6,967.9 L496.5,967.9 L496.5,1268.8 Z" fill="#565b61" fill-opacity="0.55" stroke="#565b61" stroke-width="0.4"/>
<path d="M523.7,1268.8 L523.7,967.9 L525.7,967.9 L525.7,1268.8 Z" fill="#565b61" fill-opacity="0.55" stroke="#565b61" stroke-width="0.4"/>
<path d="M319.7,1153.2 L319.7,1144.1 L44.0,1144.1 L44.0,898.0 L816.0,898.0 L816.0,1144.1 L525.7,1144.1 L525.7,1153.2 L523.7,1153.2 L523.7,1144.1 L496.5,1144.1 L496.5,1153.2 L494.6,1153.2 L494.6,1144.1 L467.4,1144.1 L467.4,1153.2 L465.5,1153.2 L465.5,1144.1 L438.3,1144.1 L438.3,1153.2 L436.3,1153.2 L436.3,1144.1 L409.1,1144.1 L409.1,1153.2 L407.2,1153.2 L407.2,1144.1 L380.0,1144.1 L380.0,1153.2 L378.0,1153.2 L378.0,1144.1 L350.8,1144.1 L350.8,1153.2 L348.9,1153.2 L348.9,1144.1 L321.7,1144.1 L321.7,1153.2 Z" fill="#565b61" fill-opacity="0.55" stroke="#565b61" stroke-width="0.4"/>
<path d="M44.0,1144.1 L44.0,898.0 L816.0,898.0 L816.0,1144.1 Z" fill="#565b61" fill-opacity="0.55" stroke="#565b61" stroke-width="0.4"/>
<path d="M44.0,1144.1 L44.0,898.0 L816.0,898.0 L816.0,1144.1 Z" fill="#565b61" fill-opacity="0.55" stroke="#565b61" stroke-width="0.4"/>
<path d="M44.0,1144.1 L44.0,898.0 L816.0,898.0 L816.0,1144.1 Z" fill="#565b61" fill-opacity="0.55" stroke="#565b61" stroke-width="0.4"/>
<path d="M44.0,1129.6 L44.0,912.5 L816.0,912.5 L816.0,1129.6 Z" fill="#565b61" fill-opacity="0.55" stroke="#565b61" stroke-width="0.4"/>
<path d="M44.0,878.7 L44.0,632.6 L816.0,632.6 L816.0,878.7 Z" fill="#565b61" fill-opacity="0.55" stroke="#565b61" stroke-width="0.4"/>
<path d="M44.0,878.7 L44.0,632.6 L816.0,632.6 L816.0,878.7 Z" fill="#565b61" fill-opacity="0.55" stroke="#565b61" stroke-width="0.4"/>
<path d="M44.0,878.7 L44.0,632.6 L816.0,632.6 L816.0,878.7 Z" fill="#565b61" fill-opacity="0.55" stroke="#565b61" stroke-width="0.4"/>
<path d="M44.0,878.7 L44.0,632.6 L816.0,632.6 L816.0,878.7 Z" fill="#565b61" fill-opacity="0.55" stroke="#565b61" stroke-width="0.4"/>
<path d="M44.0,864.2 L44.0,647.1 L816.0,647.1 L816.0,864.2 Z" fill="#565b61" fill-opacity="0.55" stroke="#565b61" stroke-width="0.4"/>
<path d="M407.4,220.5 L407.4,170.5 L400.8,170.5 L400.8,170.2 L75.7,170.2 L75.7,170.8 L46.0,170.8 L46.0,170.2 L44.0,170.2 L44.0,168.7 L46.0,168.7 L46.0,168.1 L75.7,168.1 L75.7,168.7 L400.8,168.7 L400.8,168.4 L468.5,168.4 L468.5,168.7 L784.3,168.7 L784.3,168.1 L814.0,168.1 L814.0,168.7 L816.0,168.7 L816.0,170.2 L814.0,170.2 L814.0,170.8 L784.3,170.8 L784.3,170.2 L468.5,170.2 L468.5,170.5 L442.8,170.5 L442.8,220.5 L441.2,220.5 L441.2,170.5 L408.9,170.5 L408.9,220.5 Z" fill="#565b61" fill-opacity="0.55" stroke="#565b61" stroke-width="0.4"/>
<path d="M46.0,170.8 L46.0,168.1 L75.7,168.1 L75.7,170.8 Z" fill="#565b61" fill-opacity="0.55" stroke="#565b61" stroke-width="0.4"/>
<path d="M784.3,170.8 L784.3,168.1 L814.0,168.1 L814.0,170.8 Z" fill="#565b61" fill-opacity="0.55" stroke="#565b61" stroke-width="0.4"/>
<path d="M44.0,237.0 L44.0,63.3 L816.0,63.3 L816.0,237.0 Z" fill="#565b61" fill-opacity="0.55" stroke="#565b61" stroke-width="0.4"/>
<path d="M44.0,430.0 L44.0,277.5 L53.6,277.5 L53.6,235.1 L420.4,235.1 L420.4,277.5 L816.0,277.5 L816.0,430.0 Z" fill="#565b61" fill-opacity="0.55" stroke="#565b61" stroke-width="0.4"/>
<path d="M44.0,430.0 L44.0,256.3 L816.0,256.3 L816.0,430.0 Z" fill="#565b61" fill-opacity="0.55" stroke="#565b61" stroke-width="0.4"/>
<path d="M44.0,430.0 L44.0,256.3 L816.0,256.3 L816.0,430.0 Z" fill="#565b61" fill-opacity="0.55" stroke="#565b61" stroke-width="0.4"/>
<path d="M410.5,290.3 L410.5,267.0 L400.8,267.0 L400.8,266.7 L75.7,266.7 L75.7,267.3 L46.0,267.3 L46.0,266.7 L44.0,266.7 L44.0,265.2 L46.0,265.2 L46.0,264.6 L75.7,264.6 L75.7,265.2 L400.8,265.2 L400.8,264.9 L407.4,264.9 L407.4,234.2 L408.9,234.2 L408.9,264.9 L441.2,264.9 L441.2,234.2 L442.8,234.2 L442.8,264.9 L468.5,264.9 L468.5,265.2 L784.3,265.2 L784.3,264.6 L814.0,264.6 L814.0,265.2 L816.0,265.2 L816.0,266.7 L814.0,266.7 L814.0,267.3 L784.3,267.3 L784.3,266.7 L468.5,266.7 L468.5,267.0 L458.8,267.0 L458.8,290.3 L457.3,290.3 L457.3,267.0 L445.9,267.0 L445.9,290.3 L444.3,290.3 L444.3,267.0 L424.9,267.0 L424.9,290.3 L423.4,290.3 L423.4,267.0 L412.0,267.0 L412.0,290.3 Z" fill="#565b61" fill-opacity="0.55" stroke="#565b61" stroke-width="0.4"/>
<path d="M46.0,267.3 L46.0,264.6 L75.7,264.6 L75.7,267.3 Z" fill="#565b61" fill-opacity="0.55" stroke="#565b61" stroke-width="0.4"/>
<path d="M784.3,267.3 L784.3,264.6 L814.0,264.6 L814.0,267.3 Z" fill="#565b61" fill-opacity="0.55" stroke="#565b61" stroke-width="0.4"/>
<path d="M44.0,430.0 L44.0,256.3 L816.0,256.3 L816.0,430.0 Z" fill="#565b61" fill-opacity="0.55" stroke="#565b61" stroke-width="0.4"/>
<path d="M439.7,258.2 L439.7,215.8 L44.0,215.8 L44.0,63.3 L816.0,63.3 L816.0,215.8 L806.4,215.8 L806.4,258.2 Z" fill="#565b61" fill-opacity="0.55" stroke="#565b61" stroke-width="0.4"/>
<path d="M44.0,237.0 L44.0,63.3 L816.0,63.3 L816.0,237.0 Z" fill="#565b61" fill-opacity="0.55" stroke="#565b61" stroke-width="0.4"/>
<path d="M44.0,237.0 L44.0,63.3 L816.0,63.3 L816.0,237.0 Z" fill="#565b61" fill-opacity="0.55" stroke="#565b61" stroke-width="0.4"/>
<path d="M407.2,298.8 L407.2,292.0 L409.2,292.0 L409.2,298.8 Z" fill="#565b61" fill-opacity="0.55" stroke="#565b61" stroke-width="0.4"/>
<path d="M441.0,298.8 L441.0,292.0 L443.1,292.0 L443.1,298.8 Z" fill="#565b61" fill-opacity="0.55" stroke="#565b61" stroke-width="0.4"/>
<path d="M412.1,259.6 L412.1,232.5 L406.5,232.5 L406.5,222.2 L412.1,222.2 L412.1,175.6 L414.1,175.6 L414.1,259.6 Z" fill="#565b61" fill-opacity="0.55" stroke="#565b61" stroke-width="0.4"/>
<path d="M445.9,259.6 L445.9,232.5 L440.4,232.5 L440.4,222.2 L445.9,222.2 L445.9,175.6 L447.9,175.6 L447.9,259.6 Z" fill="#565b61" fill-opacity="0.55" stroke="#565b61" stroke-width="0.4"/>
<path d="M407.2,298.8 L407.2,257.6 L412.1,257.6 L412.1,44.0 L447.9,44.0 L447.9,259.5 L443.0,259.5 L443.0,298.8 L441.1,298.8 L441.1,257.6 L446.0,257.6 L446.0,169.5 L414.0,169.5 L414.0,259.5 L409.2,259.5 L409.2,298.8 Z" fill="#565b61" fill-opacity="0.55" stroke="#565b61" stroke-width="0.4"/>
<path d="M412.1,46.8 L412.1,44.0 L447.9,44.0 L447.9,46.8 Z" fill="#565b61" fill-opacity="0.55" stroke="#565b61" stroke-width="0.4"/>
<path d="M452.3,323.7 L452.3,319.6 L441.0,319.6 L441.0,316.5 L452.3,316.5 L452.3,274.1 L453.9,274.1 L453.9,295.8 L462.1,295.8 L462.1,298.9 L453.9,298.9 L453.9,323.7 Z" fill="#565b61" fill-opacity="0.55" stroke="#565b61" stroke-width="0.4"/>
<path d="M436.3,323.7 L436.3,274.1 L437.9,274.1 L437.9,311.7 L449.2,311.7 L449.2,314.8 L437.9,314.8 L437.9,323.7 Z" fill="#565b61" fill-opacity="0.55" stroke="#565b61" stroke-width="0.4"/>
<path d="M447.1,298.8 L447.1,292.0 L449.2,292.0 L449.2,298.8 Z" fill="#565b61" fill-opacity="0.55" stroke="#565b61" stroke-width="0.4"/>
<path d="M435.8,259.6 L435.8,175.6 L437.9,175.6 L437.9,259.6 Z" fill="#565b61" fill-opacity="0.55" stroke="#565b61" stroke-width="0.4"/>
<path d="M435.9,306.5 L435.9,176.6 L437.8,176.6 L437.8,304.5 L447.2,304.5 L447.2,292.0 L449.1,292.0 L449.1,306.5 Z" fill="#565b61" fill-opacity="0.55" stroke="#565b61" stroke-width="0.4"/>
<path d="M418.5,323.7 L418.5,319.6 L407.2,319.6 L407.2,316.5 L418.5,316.5 L418.5,274.1 L420.0,274.1 L420.0,295.8 L428.2,295.8 L428.2,298.9 L420.0,298.9 L420.0,323.7 Z" fill="#565b61" fill-opacity="0.55" stroke="#565b61" stroke-width="0.4"/>
<path d="M402.4,323.7 L402.4,274.1 L404.0,274.1 L404.0,311.7 L415.3,311.7 L415.3,314.8 L404.0,314.8 L404.0,323.7 Z" fill="#565b61" fill-opacity="0.55" stroke="#565b61" stroke-width="0.4"/>
<path d="M413.3,298.8 L413.3,292.0 L415.3,292.0 L415.3,298.8 Z" fill="#565b61" fill-opacity="0.55" stroke="#565b61" stroke-width="0.4"/>
<path d="M402.0,259.6 L402.0,175.6 L404.0,175.6 L404.0,259.6 Z" fill="#565b61" fill-opacity="0.55" stroke="#565b61" stroke-width="0.4"/>
<path d="M402.0,306.5 L402.0,176.6 L403.9,176.6 L403.9,304.5 L413.3,304.5 L413.3,292.0 L415.2,292.0 L415.2,306.5 Z" fill="#565b61" fill-opacity="0.55" stroke="#565b61" stroke-width="0.4"/>
<path d="M92.2,1781.0 L92.2,1752.0 L767.8,1752.0 L767.8,1781.0 Z" fill="#b0a030" fill-opacity="0.9" stroke="#b0a030" stroke-width="0.4"/>
<path d="M92.2,1781.0 L92.2,1752.0 L767.8,1752.0 L767.8,1781.0 Z" fill="#b0a030" fill-opacity="0.9" stroke="#b0a030" stroke-width="0.4"/>
<path d="M92.2,1781.0 L92.2,1752.0 L767.8,1752.0 L767.8,1781.0 Z" fill="#b0a030" fill-opacity="0.9" stroke="#b0a030" stroke-width="0.4"/>
<path d="M191.0,1658.8 L191.0,1630.4 L46.9,1630.4 L46.9,954.2 L431.4,954.2 L431.4,276.0 L433.4,276.0 L433.4,957.0 L49.7,957.0 L49.7,1627.6 L192.9,1627.6 L192.9,1658.8 Z" fill="#b0a030" fill-opacity="0.9" stroke="#b0a030" stroke-width="0.4"/>
<path d="M92.2,1781.0 L92.2,1752.0 L332.3,1752.0 L332.3,967.9 L338.2,967.9 L338.2,1752.0 L361.5,1752.0 L361.5,967.9 L367.4,967.9 L367.4,1752.0 L390.6,1752.0 L390.6,967.9 L396.5,967.9 L396.5,1752.0 L419.8,1752.0 L419.8,967.9 L425.7,967.9 L425.7,1752.0 L448.9,1752.0 L448.9,967.9 L454.8,967.9 L454.8,1752.0 L478.1,1752.0 L478.1,967.9 L483.9,967.9 L483.9,1752.0 L507.2,1752.0 L507.2,967.9 L513.1,967.9 L513.1,1752.0 L536.3,1752.0 L536.3,967.9 L542.2,967.9 L542.2,1752.0 L767.8,1752.0 L767.8,1781.0 Z" fill="#e05a1a" fill-opacity="0.9" stroke="#e05a1a" stroke-width="0.4"/>
<path d="M325.9,1700.2 L325.9,1652.0 L192.9,1652.0 L192.9,1656.0 L194.7,1656.0 L194.7,1660.8 L188.9,1660.8 L188.9,1656.0 L190.9,1656.0 L190.9,1650.4 L531.5,1650.4 L531.5,1700.2 L529.9,1700.2 L529.9,1652.0 L519.5,1652.0 L519.5,1700.2 L518.0,1700.2 L518.0,1652.0 L502.3,1652.0 L502.3,1700.2 L500.8,1700.2 L500.8,1652.0 L490.4,1652.0 L490.4,1700.2 L488.8,1700.2 L488.8,1652.0 L473.2,1652.0 L473.2,1700.2 L471.6,1700.2 L471.6,1652.0 L461.2,1652.0 L461.2,1700.2 L459.7,1700.2 L459.7,1652.0 L444.0,1652.0 L444.0,1700.2 L442.5,1700.2 L442.5,1652.0 L432.1,1652.0 L432.1,1700.2 L430.5,1700.2 L430.5,1652.0 L414.9,1652.0 L414.9,1700.2 L413.4,1700.2 L413.4,1652.0 L402.9,1652.0 L402.9,1700.2 L401.4,1700.2 L401.4,1652.0 L385.8,1652.0 L385.8,1700.2 L384.2,1700.2 L384.2,1652.0 L373.8,1652.0 L373.8,1700.2 L372.2,1700.2 L372.2,1652.0 L356.6,1652.0 L356.6,1700.2 L355.1,1700.2 L355.1,1652.0 L344.6,1652.0 L344.6,1700.2 L343.1,1700.2 L343.1,1652.0 L327.5,1652.0 L327.5,1700.2 Z" fill="#e05a1a" fill-opacity="0.9" stroke="#e05a1a" stroke-width="0.4"/>
<path d="M431.4,340.1 L431.4,274.1 L433.4,274.1 L433.4,340.1 Z" fill="#e05a1a" fill-opacity="0.9" stroke="#e05a1a" stroke-width="0.4"/>
<path d="M332.3,1696.6 L332.3,1654.1 L338.3,1654.1 L338.3,1696.6 Z" fill="#d0203a" fill-opacity="0.9" stroke="#d0203a" stroke-width="0.4"/>
<path d="M361.4,1696.6 L361.4,1654.1 L367.4,1654.1 L367.4,1696.6 Z" fill="#d0203a" fill-opacity="0.9" stroke="#d0203a" stroke-width="0.4"/>
<path d="M390.6,1696.6 L390.6,1654.1 L396.6,1654.1 L396.6,1696.6 Z" fill="#d0203a" fill-opacity="0.9" stroke="#d0203a" stroke-width="0.4"/>
<path d="M419.7,1696.6 L419.7,1654.1 L425.7,1654.1 L425.7,1696.6 Z" fill="#d0203a" fill-opacity="0.9" stroke="#d0203a" stroke-width="0.4"/>
<path d="M448.9,1696.6 L448.9,1654.1 L454.8,1654.1 L454.8,1696.6 Z" fill="#d0203a" fill-opacity="0.9" stroke="#d0203a" stroke-width="0.4"/>
<path d="M478.0,1696.6 L478.0,1654.1 L484.0,1654.1 L484.0,1696.6 Z" fill="#d0203a" fill-opacity="0.9" stroke="#d0203a" stroke-width="0.4"/>
<path d="M507.2,1696.6 L507.2,1654.1 L513.1,1654.1 L513.1,1696.6 Z" fill="#d0203a" fill-opacity="0.9" stroke="#d0203a" stroke-width="0.4"/>
<path d="M536.3,1696.6 L536.3,1654.1 L542.3,1654.1 L542.3,1696.6 Z" fill="#d0203a" fill-opacity="0.9" stroke="#d0203a" stroke-width="0.4"/>
<path d="M296.0,1589.8 L296.0,1577.7 L564.0,1577.7 L564.0,1589.8 Z" fill="#d0203a" fill-opacity="0.9" stroke="#d0203a" stroke-width="0.4"/>
<path d="M296.0,1546.4 L296.0,1534.2 L564.0,1534.2 L564.0,1546.4 Z" fill="#d0203a" fill-opacity="0.9" stroke="#d0203a" stroke-width="0.4"/>
<path d="M296.0,1247.1 L296.0,1234.9 L564.0,1234.9 L564.0,1247.1 Z" fill="#d0203a" fill-opacity="0.9" stroke="#d0203a" stroke-width="0.4"/>
<path d="M296.0,1203.6 L296.0,1191.5 L564.0,1191.5 L564.0,1203.6 Z" fill="#d0203a" fill-opacity="0.9" stroke="#d0203a" stroke-width="0.4"/>
<path d="M332.3,1126.2 L332.3,1064.0 L338.3,1064.0 L338.3,1126.2 Z" fill="#d0203a" fill-opacity="0.9" stroke="#d0203a" stroke-width="0.4"/>
<path d="M361.4,1126.2 L361.4,1064.0 L367.4,1064.0 L367.4,1126.2 Z" fill="#d0203a" fill-opacity="0.9" stroke="#d0203a" stroke-width="0.4"/>
<path d="M390.6,1126.2 L390.6,1064.0 L396.6,1064.0 L396.6,1126.2 Z" fill="#d0203a" fill-opacity="0.9" stroke="#d0203a" stroke-width="0.4"/>
<path d="M419.7,1126.2 L419.7,1064.0 L425.7,1064.0 L425.7,1126.2 Z" fill="#d0203a" fill-opacity="0.9" stroke="#d0203a" stroke-width="0.4"/>
<path d="M448.9,1126.2 L448.9,1064.0 L454.8,1064.0 L454.8,1126.2 Z" fill="#d0203a" fill-opacity="0.9" stroke="#d0203a" stroke-width="0.4"/>
<path d="M478.0,1126.2 L478.0,1064.0 L484.0,1064.0 L484.0,1126.2 Z" fill="#d0203a" fill-opacity="0.9" stroke="#d0203a" stroke-width="0.4"/>
<path d="M507.2,1126.2 L507.2,1064.0 L513.1,1064.0 L513.1,1126.2 Z" fill="#d0203a" fill-opacity="0.9" stroke="#d0203a" stroke-width="0.4"/>
<path d="M536.3,1126.2 L536.3,1064.0 L542.3,1064.0 L542.3,1126.2 Z" fill="#d0203a" fill-opacity="0.9" stroke="#d0203a" stroke-width="0.4"/>
<path d="M332.3,1057.6 L332.3,995.5 L338.3,995.5 L338.3,1057.6 Z" fill="#d0203a" fill-opacity="0.9" stroke="#d0203a" stroke-width="0.4"/>
<path d="M361.4,1057.6 L361.4,995.5 L367.4,995.5 L367.4,1057.6 Z" fill="#d0203a" fill-opacity="0.9" stroke="#d0203a" stroke-width="0.4"/>
<path d="M390.6,1057.6 L390.6,995.5 L396.6,995.5 L396.6,1057.6 Z" fill="#d0203a" fill-opacity="0.9" stroke="#d0203a" stroke-width="0.4"/>
<path d="M419.7,1057.6 L419.7,995.5 L425.7,995.5 L425.7,1057.6 Z" fill="#d0203a" fill-opacity="0.9" stroke="#d0203a" stroke-width="0.4"/>
<path d="M448.9,1057.6 L448.9,995.5 L454.8,995.5 L454.8,1057.6 Z" fill="#d0203a" fill-opacity="0.9" stroke="#d0203a" stroke-width="0.4"/>
<path d="M478.0,1057.6 L478.0,995.5 L484.0,995.5 L484.0,1057.6 Z" fill="#d0203a" fill-opacity="0.9" stroke="#d0203a" stroke-width="0.4"/>
<path d="M507.2,1057.6 L507.2,995.5 L513.1,995.5 L513.1,1057.6 Z" fill="#d0203a" fill-opacity="0.9" stroke="#d0203a" stroke-width="0.4"/>
<path d="M536.3,1057.6 L536.3,995.5 L542.3,995.5 L542.3,1057.6 Z" fill="#d0203a" fill-opacity="0.9" stroke="#d0203a" stroke-width="0.4"/>
<path d="M808.1,635.4 L808.1,346.6 L814.0,346.6 L814.0,635.4 Z" fill="#d0203a" fill-opacity="0.9" stroke="#d0203a" stroke-width="0.4"/>
<path d="M325.9,1130.9 L325.9,992.3 L192.9,992.3 L192.9,996.0 L195.0,996.0 L195.0,1000.8 L189.2,1000.8 L189.2,996.0 L190.9,996.0 L190.9,990.8 L531.5,990.8 L531.5,1130.9 L529.9,1130.9 L529.9,992.3 L519.5,992.3 L519.5,1130.9 L518.0,1130.9 L518.0,992.3 L502.3,992.3 L502.3,1130.9 L500.8,1130.9 L500.8,992.3 L490.4,992.3 L490.4,1130.9 L488.8,1130.9 L488.8,992.3 L473.2,992.3 L473.2,1130.9 L471.6,1130.9 L471.6,992.3 L461.2,992.3 L461.2,1130.9 L459.7,1130.9 L459.7,992.3 L444.0,992.3 L444.0,1130.9 L442.5,1130.9 L442.5,992.3 L432.1,992.3 L432.1,1130.9 L430.5,1130.9 L430.5,992.3 L414.9,992.3 L414.9,1130.9 L413.4,1130.9 L413.4,992.3 L402.9,992.3 L402.9,1130.9 L401.4,1130.9 L401.4,992.3 L385.8,992.3 L385.8,1130.9 L384.2,1130.9 L384.2,992.3 L373.8,992.3 L373.8,1130.9 L372.2,1130.9 L372.2,992.3 L356.6,992.3 L356.6,1130.9 L355.1,1130.9 L355.1,992.3 L344.6,992.3 L344.6,1130.9 L343.1,1130.9 L343.1,992.3 L327.5,992.3 L327.5,1130.9 Z" fill="#d13bbf" fill-opacity="0.9" stroke="#d13bbf" stroke-width="0.4"/>
<path d="M465.3,340.1 L465.3,274.1 L467.3,274.1 L467.3,340.1 Z" fill="#d13bbf" fill-opacity="0.9" stroke="#d13bbf" stroke-width="0.4"/>
<path d="M191.0,999.1 L191.0,961.0 L465.3,961.0 L465.3,276.0 L467.2,276.0 L467.2,963.8 L192.9,963.8 L192.9,999.1 Z" fill="#d13bbf" fill-opacity="0.9" stroke="#d13bbf" stroke-width="0.4"/>
<path d="M808.0,349.4 L808.0,348.7 L468.5,348.7 L468.5,349.0 L400.8,349.0 L400.8,348.7 L44.0,348.7 L44.0,347.2 L400.8,347.2 L400.8,347.0 L409.7,347.0 L409.7,321.3 L412.8,321.3 L412.8,347.0 L423.4,347.0 L423.4,304.2 L424.9,304.2 L424.9,347.0 L443.6,347.0 L443.6,321.3 L446.6,321.3 L446.6,347.0 L457.3,347.0 L457.3,304.2 L458.8,304.2 L458.8,347.0 L468.5,347.0 L468.5,347.2 L808.0,347.2 L808.0,346.6 L814.0,346.6 L814.0,347.2 L816.0,347.2 L816.0,348.7 L814.0,348.7 L814.0,349.4 Z" fill="#d13bbf" fill-opacity="0.9" stroke="#d13bbf" stroke-width="0.4"/>
<text x="44" y="1853" fill="#9aa4ad" font-size="12">EM risk  I / Imax  (Xyce transient; grey = within limit)</text>
<rect x="44" y="1859" width="15" height="15" fill="#565b61"/><text x="65" y="1871" fill="#c9d1d9" font-size="12">ok <0.5x</text>
<rect x="212" y="1859" width="15" height="15" fill="#b0a030"/><text x="233" y="1871" fill="#c9d1d9" font-size="12">watch <1x</text>
<rect x="380" y="1859" width="15" height="15" fill="#e05a1a"/><text x="401" y="1871" fill="#c9d1d9" font-size="12">over <3x</text>
<rect x="548" y="1859" width="15" height="15" fill="#d0203a"/><text x="569" y="1871" fill="#c9d1d9" font-size="12">high <10x</text>
<rect x="716" y="1859" width="15" height="15" fill="#d13bbf"/><text x="737" y="1871" fill="#c9d1d9" font-size="12">crit >=10x</text>
</svg>