<svg xmlns="http://www.w3.org/2000/svg" width="900" height="1965" viewBox="0 0 900 1965" font-family="ui-monospace,Menlo,Consolas,monospace">
<rect width="900" height="1965" fill="#0d1117"/>
<text x="48" y="28" fill="#e6edf3" font-size="18">hot-spot EM heat-map</text>
<line x1="48.0" y1="1778.6" x2="852.0" y2="448.3" stroke="#6b6b6b" stroke-width="42.6" stroke-linecap="round"><title>iovss_gr:1 Metal1 w=4.2429um  worst=0.00x</title></line>
<line x1="50.1" y1="1796.7" x2="549.6" y2="510.3" stroke="#6b6b6b" stroke-width="4.1" stroke-linecap="round"><title>iovss_gr:2 Metal2 w=0.4073um  worst=0.00x</title></line>
<line x1="48.0" y1="1795.8" x2="852.0" y2="510.3" stroke="#6b6b6b" stroke-width="99.3" stroke-linecap="round"><title>iovss_gr:3 Metal3 w=9.8789um  worst=0.00x</title></line>
<line x1="48.0" y1="1786.7" x2="852.0" y2="510.3" stroke="#6b6b6b" stroke-width="139.2" stroke-linecap="round"><title>iovss_gr:4 Metal4 w=13.8501um  worst=0.00x</title></line>
<line x1="48.0" y1="1786.7" x2="852.0" y2="510.3" stroke="#6b6b6b" stroke-width="139.2" stroke-linecap="round"><title>iovss_gr:5 Metal5 w=13.8501um  worst=0.00x</title></line>
<line x1="48.0" y1="1786.7" x2="852.0" y2="510.3" stroke="#6b6b6b" stroke-width="139.2" stroke-linecap="round"><title>iovss_gr:6 TopMetal1 w=13.8501um  worst=0.00x</title></line>
<line x1="48.0" y1="1771.6" x2="852.0" y2="525.4" stroke="#6b6b6b" stroke-width="117.9" stroke-linecap="round"><title>iovss_gr:7 TopMetal2 w=11.7333um  worst=0.00x</title></line>
<circle cx="300.1" cy="1145.2" r="5" fill="#6b6b6b" stroke="#0d1117"/>
<circle cx="300.1" cy="1154.0" r="5" fill="#6b6b6b" stroke="#0d1117"/>
<circle cx="450.0" cy="1144.7" r="5" fill="#6b6b6b" stroke="#0d1117"/>
<circle cx="450.0" cy="1144.7" r="5" fill="#6b6b6b" stroke="#0d1117"/>
<circle cx="450.0" cy="1149.7" r="5" fill="#6b6b6b" stroke="#0d1117"/>
<circle cx="450.0" cy="1149.7" r="5" fill="#6b6b6b" stroke="#0d1117"/>
<line x1="48.0" y1="1796.7" x2="852.0" y2="1243.9" stroke="#6b6b6b" stroke-width="18.8" stroke-linecap="round"><title>guard:1 Metal1 w=1.8706um  worst=0.00x</title></line>
<line x1="66.1" y1="1323.5" x2="833.9" y2="1028.3" stroke="#6b6b6b" stroke-width="5.4" stroke-linecap="round"><title>iovdd_esd:1 Metal1 w=0.5378um  worst=0.00x</title></line>
<line x1="283.9" y1="1323.5" x2="549.6" y2="1010.2" stroke="#6b6b6b" stroke-width="3.3" stroke-linecap="round"><title>iovdd_esd:2 Metal2 w=0.3284um  worst=0.00x</title></line>
<line x1="48.0" y1="1203.2" x2="852.0" y2="937.4" stroke="#6b6b6b" stroke-width="79.9" stroke-linecap="round"><title>iovdd_esd:3 Metal3 w=7.9548um  worst=0.00x</title></line>
<line x1="48.0" y1="1193.7" x2="852.0" y2="937.4" stroke="#6b6b6b" stroke-width="194.3" stroke-linecap="round"><title>iovdd_esd:4 Metal4 w=19.3365um  worst=0.00x</title></line>
<line x1="48.0" y1="1193.7" x2="852.0" y2="937.4" stroke="#6b6b6b" stroke-width="194.3" stroke-linecap="round"><title>iovdd_esd:5 Metal5 w=19.3365um  worst=0.00x</title></line>
<line x1="48.0" y1="1193.7" x2="852.0" y2="937.4" stroke="#6b6b6b" stroke-width="194.3" stroke-linecap="round"><title>iovdd_esd:6 TopMetal1 w=19.3365um  worst=0.00x</title></line>
<line x1="48.0" y1="1178.6" x2="852.0" y2="952.5" stroke="#6b6b6b" stroke-width="176.5" stroke-linecap="round"><title>iovdd_esd:7 TopMetal2 w=17.561um  worst=0.00x</title></line>
<circle cx="417.2" cy="1175.7" r="5" fill="#6b6b6b" stroke="#0d1117"/>
<circle cx="442.4" cy="1107.0" r="5" fill="#6b6b6b" stroke="#0d1117"/>
<circle cx="450.0" cy="1065.6" r="5" fill="#6b6b6b" stroke="#0d1117"/>
<circle cx="450.0" cy="1065.6" r="5" fill="#6b6b6b" stroke="#0d1117"/>
<circle cx="450.0" cy="1065.6" r="5" fill="#6b6b6b" stroke="#0d1117"/>
<circle cx="450.0" cy="1065.6" r="5" fill="#6b6b6b" stroke="#0d1117"/>
<circle cx="450.0" cy="359.5" r="5" fill="#6b6b6b" stroke="#0d1117"/>
<line x1="48.0" y1="304.5" x2="852.0" y2="246.1" stroke="#6b6b6b" stroke-width="2.0" stroke-linecap="round"><title>vss:1 Metal1 w=0.1703um  worst=0.00x</title></line>
<line x1="50.1" y1="280.6" x2="849.9" y2="277.7" stroke="#6b6b6b" stroke-width="2.7" stroke-linecap="round"><title>vss:2 Metal2 w=0.265um  worst=0.00x</title></line>
<line x1="48.0" y1="450.0" x2="852.0" y2="269.1" stroke="#6b6b6b" stroke-width="147.7" stroke-linecap="round"><title>vss:3 Metal3 w=14.6939um  worst=0.00x</title></line>
<line x1="48.0" y1="271.1" x2="852.0" y2="68.1" stroke="#6b6b6b" stroke-width="143.5" stroke-linecap="round"><title>vss:4 Metal4 w=14.2834um  worst=0.00x</title></line>
<line x1="48.0" y1="249.0" x2="852.0" y2="68.1" stroke="#6b6b6b" stroke-width="147.7" stroke-linecap="round"><title>vss:5 Metal5 w=14.6939um  worst=0.00x</title></line>
<line x1="48.0" y1="249.0" x2="852.0" y2="68.1" stroke="#6b6b6b" stroke-width="147.7" stroke-linecap="round"><title>vss:6 TopMetal1 w=14.6939um  worst=0.00x</title></line>
<circle cx="450.0" cy="279.1" r="5" fill="#6b6b6b" stroke="#0d1117"/>
<circle cx="450.0" cy="279.1" r="5" fill="#6b6b6b" stroke="#0d1117"/>
<circle cx="651.0" cy="270.1" r="5" fill="#6b6b6b" stroke="#0d1117"/>
<circle cx="450.0" cy="147.5" r="5" fill="#6b6b6b" stroke="#0d1117"/>
<circle cx="450.0" cy="158.5" r="5" fill="#6b6b6b" stroke="#0d1117"/>
<line x1="425.5" y1="313.3" x2="468.7" y2="185.0" stroke="#6b6b6b" stroke-width="2.4" stroke-linecap="round"><title>c2p_in:1 Metal1 w=0.2422um  worst=0.00x</title></line>
<line x1="426.3" y1="313.3" x2="468.6" y2="48.0" stroke="#6b6b6b" stroke-width="8.7" stroke-linecap="round"><title>c2p_in:2 Metal2 w=0.8633um  worst=0.00x</title></line>
<line x1="431.4" y1="50.9" x2="468.6" y2="48.0" stroke="#6b6b6b" stroke-width="2.7" stroke-linecap="round"><title>c2p_in:3 Metal3 w=0.269um  worst=0.00x</title></line>
<circle cx="447.5" cy="249.7" r="5" fill="#6b6b6b" stroke="#0d1117"/>
<circle cx="450.0" cy="49.5" r="5" fill="#6b6b6b" stroke="#0d1117"/>
<line x1="461.5" y1="339.2" x2="483.4" y2="287.6" stroke="#6b6b6b" stroke-width="2.0" stroke-linecap="round"><title>nI3:1 Metal1 w=0.1801um  worst=0.00x</title></line>
<line x1="456.6" y1="339.2" x2="469.9" y2="287.6" stroke="#6b6b6b" stroke-width="2.0" stroke-linecap="round"><title>nI4:1 Metal1 w=0.1755um  worst=0.00x</title></line>
<line x1="456.1" y1="313.3" x2="469.9" y2="185.0" stroke="#6b6b6b" stroke-width="2.0" stroke-linecap="round"><title>nI5:1 Metal1 w=0.1966um  worst=0.00x</title></line>
<line x1="456.1" y1="321.4" x2="469.9" y2="186.1" stroke="#6b6b6b" stroke-width="2.0" stroke-linecap="round"><title>nI5:2 Metal2 w=0.1927um  worst=0.00x</title></line>
<circle cx="463.0" cy="249.7" r="5" fill="#6b6b6b" stroke="#0d1117"/>
<line x1="426.2" y1="339.2" x2="448.1" y2="287.6" stroke="#6b6b6b" stroke-width="2.0" stroke-linecap="round"><title>nI6:1 Metal1 w=0.1801um  worst=0.00x</title></line>
<line x1="421.3" y1="339.2" x2="434.7" y2="287.6" stroke="#6b6b6b" stroke-width="2.0" stroke-linecap="round"><title>nI7:1 Metal1 w=0.1755um  worst=0.00x</title></line>
<line x1="420.8" y1="313.3" x2="434.7" y2="185.0" stroke="#6b6b6b" stroke-width="2.0" stroke-linecap="round"><title>nI8:1 Metal1 w=0.1966um  worst=0.00x</title></line>
<line x1="420.9" y1="321.4" x2="434.6" y2="186.1" stroke="#6b6b6b" stroke-width="2.0" stroke-linecap="round"><title>nI8:2 Metal2 w=0.1927um  worst=0.00x</title></line>
<circle cx="427.7" cy="249.7" r="5" fill="#6b6b6b" stroke="#0d1117"/>
<circle cx="450.0" cy="370.6" r="5" fill="#6b6b6b" stroke="#0d1117"/>
<line x1="48.0" y1="450.0" x2="852.0" y2="269.1" stroke="#6b6b6b" stroke-width="147.7" stroke-linecap="round"><title>vdd:6 TopMetal1 w=14.6939um  worst=0.00x</title></line>
<circle cx="249.0" cy="248.0" r="5" fill="#6b6b6b" stroke="#0d1117"/>
<line x1="48.0" y1="450.0" x2="852.0" y2="269.1" stroke="#6b6b6b" stroke-width="147.7" stroke-linecap="round"><title>vdd:5 Metal5 w=14.6939um  worst=0.00x</title></line>
<line x1="48.0" y1="249.0" x2="852.0" y2="68.1" stroke="#6b6b6b" stroke-width="147.7" stroke-linecap="round"><title>vdd:3 Metal3 w=14.6939um  worst=0.00x</title></line>
<line x1="48.0" y1="450.0" x2="852.0" y2="247.0" stroke="#6b6b6b" stroke-width="143.5" stroke-linecap="round"><title>vdd:4 Metal4 w=14.2834um  worst=0.00x</title></line>
<circle cx="450.0" cy="178.6" r="5" fill="#6b6b6b" stroke="#0d1117"/>
<circle cx="450.0" cy="178.6" r="5" fill="#6b6b6b" stroke="#0d1117"/>
<line x1="50.1" y1="180.1" x2="849.9" y2="177.2" stroke="#6b6b6b" stroke-width="2.7" stroke-linecap="round"><title>vdd:2 Metal2 w=0.265um  worst=0.00x</title></line>
<line x1="48.0" y1="231.8" x2="852.0" y2="177.2" stroke="#6b6b6b" stroke-width="2.0" stroke-linecap="round"><title>vdd:1 Metal1 w=0.1719um  worst=0.00x</title></line>
<circle cx="450.0" cy="1382.1" r="5" fill="#6b6b6b" stroke="#0d1117"/>
<circle cx="450.0" cy="1382.1" r="5" fill="#6b6b6b" stroke="#0d1117"/>
<line x1="48.0" y1="1510.3" x2="852.0" y2="1254.0" stroke="#6b6b6b" stroke-width="194.3" stroke-linecap="round"><title>iovss:4 TopMetal1 w=19.3365um  worst=0.00x</title></line>
<line x1="48.0" y1="1495.2" x2="852.0" y2="1269.1" stroke="#6b6b6b" stroke-width="176.5" stroke-linecap="round"><title>iovss:5 TopMetal2 w=17.561um  worst=0.00x</title></line>
<circle cx="450.0" cy="789.2" r="5" fill="#6b6b6b" stroke="#0d1117"/>
<circle cx="450.0" cy="1382.1" r="5" fill="#6b6b6b" stroke="#0d1117"/>
<circle cx="450.0" cy="1382.1" r="5" fill="#6b6b6b" stroke="#0d1117"/>
<line x1="48.0" y1="1510.3" x2="852.0" y2="1254.0" stroke="#6c6c6c" stroke-width="194.3" stroke-linecap="round"><title>iovss:1 Metal3 w=19.3365um  worst=0.01x</title></line>
<line x1="48.0" y1="1510.3" x2="852.0" y2="1254.0" stroke="#6c6c6c" stroke-width="194.3" stroke-linecap="round"><title>iovss:2 Metal4 w=19.3365um  worst=0.01x</title></line>
<line x1="48.0" y1="1510.3" x2="852.0" y2="1254.0" stroke="#6c6c6c" stroke-width="194.3" stroke-linecap="round"><title>iovss:3 Metal5 w=19.3365um  worst=0.01x</title></line>
<circle cx="450.0" cy="789.2" r="5" fill="#6c6c6c" stroke="#0d1117"/>
<circle cx="450.0" cy="1841.9" r="5" fill="#6c6c6c" stroke="#0d1117"/>
<circle cx="450.0" cy="1841.9" r="5" fill="#6c6c6c" stroke="#0d1117"/>
<circle cx="457.6" cy="1405.0" r="5" fill="#6c6c6c" stroke="#0d1117"/>
<line x1="48.0" y1="917.3" x2="852.0" y2="661.0" stroke="#6c6c6c" stroke-width="194.3" stroke-linecap="round"><title>iovdd:6 TopMetal1 w=19.3365um  worst=0.02x</title></line>
<line x1="48.0" y1="902.2" x2="852.0" y2="676.1" stroke="#6c6c6c" stroke-width="176.5" stroke-linecap="round"><title>iovdd:7 TopMetal2 w=17.561um  worst=0.02x</title></line>
<circle cx="450.0" cy="789.2" r="5" fill="#6d6d6d" stroke="#0d1117"/>
<circle cx="450.0" cy="789.2" r="5" fill="#6d6d6d" stroke="#0d1117"/>
<circle cx="327.3" cy="1009.7" r="5" fill="#6e6e6e" stroke="#0d1117"/>
<circle cx="450.0" cy="1841.9" r="5" fill="#737373" stroke="#0d1117"/>
<line x1="98.2" y1="1857.0" x2="801.8" y2="1826.8" stroke="#737373" stroke-width="28.9" stroke-linecap="round"><title>pad:7 TopMetal2 w=2.8767um  worst=0.10x</title></line>
<line x1="98.2" y1="1857.0" x2="801.8" y2="1826.8" stroke="#747474" stroke-width="28.9" stroke-linecap="round"><title>pad:6 TopMetal1 w=2.8767um  worst=0.10x</title></line>
<line x1="48.0" y1="917.3" x2="852.0" y2="661.0" stroke="#757575" stroke-width="194.3" stroke-linecap="round"><title>iovdd:3 Metal3 w=19.3365um  worst=0.12x</title></line>
<line x1="48.0" y1="917.3" x2="852.0" y2="661.0" stroke="#757575" stroke-width="194.3" stroke-linecap="round"><title>iovdd:4 Metal4 w=19.3365um  worst=0.12x</title></line>
<line x1="48.0" y1="917.3" x2="852.0" y2="661.0" stroke="#757575" stroke-width="194.3" stroke-linecap="round"><title>iovdd:5 Metal5 w=19.3365um  worst=0.12x</title></line>
<circle cx="450.0" cy="1841.9" r="5" fill="#787878" stroke="#0d1117"/>
<circle cx="450.0" cy="1841.9" r="5" fill="#787878" stroke="#0d1117"/>
<line x1="51.0" y1="1729.7" x2="453.5" y2="289.6" stroke="#949494" stroke-width="2.5" stroke-linecap="round"><title>drv_o_n:2 Metal2 w=0.2527um  worst=0.50x</title></line>
<circle cx="344.9" cy="665.9" r="5" fill="#a0a0a0" stroke="#0d1117"/>
<line x1="98.2" y1="1857.0" x2="801.8" y2="1826.8" stroke="#aaaaaa" stroke-width="28.9" stroke-linecap="round"><title>pad:3 Metal3 w=2.8767um  worst=0.77x</title></line>
<line x1="98.2" y1="1857.0" x2="801.8" y2="1826.8" stroke="#aaaaaa" stroke-width="28.9" stroke-linecap="round"><title>pad:4 Metal4 w=2.8767um  worst=0.77x</title></line>
<line x1="98.2" y1="1857.0" x2="801.8" y2="1826.8" stroke="#aaaaaa" stroke-width="28.9" stroke-linecap="round"><title>pad:5 Metal5 w=2.8767um  worst=0.77x</title></line>
<line x1="199.0" y1="1772.9" x2="555.7" y2="287.6" stroke="#ea6829" stroke-width="2.0" stroke-linecap="round"><title>drv_o_n:1 Metal1 w=0.1595um  worst=1.59x</title></line>
<line x1="98.2" y1="1857.0" x2="801.8" y2="1010.2" stroke="#e23b27" stroke-width="7.8" stroke-linecap="round"><title>pad:2 Metal2 w=0.7793um  worst=2.86x</title></line>
<line x1="843.8" y1="664.0" x2="849.9" y2="363.1" stroke="#dc2f33" stroke-width="6.0" stroke-linecap="round"><title>iovdd:2 Metal2 w=0.5978um  worst=3.94x</title></line>
<line x1="310.4" y1="1769.1" x2="589.6" y2="1038.9" stroke="#d3284b" stroke-width="7.6" stroke-linecap="round"><title>pad:1 Metal1 w=0.7606um  worst=5.86x</title></line>
<circle cx="846.8" cy="364.6" r="5" fill="#d3284b" stroke="#0d1117"/>
<circle cx="846.8" cy="662.5" r="5" fill="#d3284b" stroke="#0d1117"/>
<line x1="201.1" y1="1042.7" x2="488.8" y2="289.6" stroke="#c7206f" stroke-width="2.2" stroke-linecap="round"><title>drv_o_p:2 Metal2 w=0.2207um  worst=10.67x</title></line>
<line x1="48.0" y1="366.0" x2="852.0" y2="318.9" stroke="#ce33a9" stroke-width="2.0" stroke-linecap="round"><title>iovdd:1 Metal1 w=0.1714um  worst=27.47x</title></line>
<line x1="199.3" y1="1179.9" x2="555.7" y2="287.6" stroke="#cf35ad" stroke-width="2.0" stroke-linecap="round"><title>drv_o_p:1 Metal1 w=0.16um  worst=29.43x</title></line>
<text x="48" y="1925" fill="#9aa4ad" font-size="12">EM risk  I / Imax   (grey = within limit; colour = over, log-scaled)</text>
<rect x="48" y="1931" width="16" height="16" fill="#8c8c8c"/>
<text x="70" y="1944" fill="#c9d1d9" font-size="12">under 1x</text>
<rect x="198" y="1931" width="16" height="16" fill="#f08c2b"/>
<text x="220" y="1944" fill="#c9d1d9" font-size="12">limit 1x</text>
<rect x="348" y="1931" width="16" height="16" fill="#e13726"/>
<text x="370" y="1944" fill="#c9d1d9" font-size="12">3x</text>
<rect x="498" y="1931" width="16" height="16" fill="#c71f6b"/>
<text x="520" y="1944" fill="#c9d1d9" font-size="12">10x</text>
<rect x="648" y="1931" width="16" height="16" fill="#d13bbf"/>
<text x="670" y="1944" fill="#c9d1d9" font-size="12">40x</text>
</svg>