<svg xmlns="http://www.w3.org/2000/svg" width="900" height="468" viewBox="0 0 900 468" font-family="ui-monospace,Menlo,Consolas,monospace">
<rect width="900" height="468" fill="#0d1117"/>
<text x="48" y="28" fill="#e6edf3" font-size="18">hot-spot EM heat-map</text>
<line x1="48.0" y1="315.3" x2="155.2" y2="315.3" stroke="#669b32" stroke-width="2.7" stroke-linecap="round"><title>sig_in:1 met1 w=0.3um  worst=0.17x</title></line>
<line x1="852.0" y1="360.0" x2="852.0" y2="226.0" stroke="#d32b33" stroke-width="71.5" stroke-linecap="round"><title>vss_rail:1 met3 w=8.0um  worst=2.50x</title></line>
<line x1="119.5" y1="47.3" x2="119.5" y2="226.0" stroke="#d22537" stroke-width="71.5" stroke-linecap="round"><title>vdd_rail:1 met3 w=8.0um  worst=2.80x</title></line>
<line x1="539.3" y1="226.0" x2="852.0" y2="226.0" stroke="#b71e64" stroke-width="35.7" stroke-linecap="round"><title>pad_drv:5 met3 w=4.0um  worst=5.60x</title></line>
<line x1="182.0" y1="226.0" x2="539.3" y2="226.0" stroke="#ad34a0" stroke-width="17.9" stroke-linecap="round"><title>pad_drv:3 met2 w=2.0um  worst=15.32x</title></line>
<circle cx="182.0" cy="226.0" r="5" fill="#b845ad" stroke="#0d1117"/>
<circle cx="539.3" cy="226.0" r="5" fill="#c85dc0" stroke="#0d1117"/>
<line x1="137.3" y1="226.0" x2="182.0" y2="226.0" stroke="#df81db" stroke-width="4.5" stroke-linecap="round"><title>pad_drv:1 met1 w=0.5um  worst=61.37x</title></line>
<text x="48" y="428" fill="#9aa4ad" font-size="12">EM risk  I / Imax  (worst of avg/rms/peak; log-scaled above 1x)</text>
<rect x="48" y="434" width="16" height="16" fill="#d9c722"/>
<text x="70" y="447" fill="#c9d1d9" font-size="12">ok 0.5x</text>
<rect x="198" y="434" width="16" height="16" fill="#e05a1a"/>
<text x="220" y="447" fill="#c9d1d9" font-size="12">limit 1x</text>
<rect x="348" y="434" width="16" height="16" fill="#d12239"/>
<text x="370" y="447" fill="#c9d1d9" font-size="12">3x</text>
<rect x="498" y="434" width="16" height="16" fill="#9e1c8e"/>
<text x="520" y="447" fill="#c9d1d9" font-size="12">10x</text>
<rect x="648" y="434" width="16" height="16" fill="#de80da"/>
<text x="670" y="447" fill="#c9d1d9" font-size="12">60x</text>
</svg>